# xmcd
#
# Track frame offsets:
#  150
#  21236
#  37583
#  64579
#  90404
#  110857
#  134051
#  153576
#  176160
#  197426
#  219970
#
# Disc length: 3359 seconds
#
# Revision: 0
# Processed by: cddbd v1.5.2PL0 Copyright (c) Steve Scherf et al.
# Submitted via: AltoMP3_Maker 3.0
#
DISCID=920d1d0b
DTITLE=Jonny Lang - Fight For My Soul
DYEAR=1900
DGENRE=
TTITLE0=Blew Up (The House)
TTITLE1=Breaking' In
TTITLE2=We Are The Same
TTITLE3=What You're Looking For
TTITLE4=Not Right
TTITLE5=The Truth
TTITLE6=River
TTITLE7=Fight For My Soul
TTITLE8=All Of a Sudden
TTITLE9=Seasons
TTITLE10=I'll Always Be
EXTD=
EXTT0=
EXTT1=
EXTT2=
EXTT3=
EXTT4=
EXTT5=
EXTT6=
EXTT7=
EXTT8=
EXTT9=
EXTT10=
PLAYORDER=
